<?xml version="1.0" encoding="utf-8"?>
<!-- Generator: Adobe Illustrator 27.5.0, SVG Export Plug-In . SVG Version: 6.00 Build 0)  -->
<svg version="1.1" xmlns="http://www.w3.org/2000/svg" xmlns:xlink="http://www.w3.org/1999/xlink" x="0px" y="0px"
	 viewBox="0 0 1200 1200" style="enable-background:new 0 0 1200 1200;" xml:space="preserve">
<g id="Background">
	<rect style="fill:#E6DCCF;" width="1200" height="1200"/>
</g>
<g id="Graphic_elements">
	<circle style="fill:#E23B3B;" cx="614.633" cy="559.814" r="385.5"/>
	<g>
		<path style="fill:#513333;" d="M1125.605,151.887c-3.719-2.463-8.135-4.398-13.122-5.751c-10.151-2.755-20.82-2.267-30.048,1.364
			c-9.963,3.92-17.099,11.3-19.573,20.246c-1.733,6.271-0.126,12.617,4.527,17.869c1.063,1.2,2.248,2.362,3.504,3.593
			c3.131,3.073,6.37,6.251,8.286,10.56c2.7,6.072,1.434,13.919-3.387,20.991c-0.134,0.196-0.287,0.371-0.452,0.528
			c0.019,0.025,0.04,0.046,0.06,0.071c3.34,4.405,4.746,10.062,3.855,15.521c-1.181,7.223-6.108,12.669-14.648,16.188
			c-0.407,0.168-0.829,0.248-1.245,0.248c-1.38,0-2.684-0.878-3.13-2.308c-0.51-1.635,0.422-3.385,2.003-4.044
			c7.167-2.985,10.649-7.282,10.734-13.191c0.026-1.789-0.296-3.583-0.97-5.241c-1.841-4.534-5.572-7.424-9.876-7.905
			c-7.024-0.785-12.487,4.495-18.267,10.086c-2.511,2.426-5.104,4.936-7.835,6.876c-7.455,5.305-16.118,7.213-23.164,5.114
			c-8.209-2.45-12.749-8.429-12.451-16.405c0.407-10.909,9.774-22.449,20.047-24.698c4.083-0.892,6.666-2.197,7.272-3.676
			c1.008-2.46-2.332-7.57-5.277-12.08c-3.231-4.946-6.57-10.059-7.291-15.272c-0.537-3.865-0.648-7.941-0.757-11.882
			c-0.415-15.199-1.311-23.853-14.87-24.964c-7.001-0.581-13.68,3.532-20.159,7.499c-3.129,1.917-6.364,3.899-9.618,5.343
			c-4.97,2.205-9.233,1.512-13.363,0.842c-1.398-0.228-2.845-0.463-4.316-0.58c-4.377-0.342-10.743-0.49-15.517,2.216
			c-4.25,2.415-6.867,5.795-7.997,10.333c-2.319,9.307,2.214,21.053,7.227,28.942c8.813,13.871,22.913,18.726,36.354,13.086
			c3.74-1.569,6.673-4.572,8.046-8.388c0.647-1.797,1.054-3.642,1.172-5.486c0.251-3.894-2.195-11.058-6.586-15.844
			c-1.622-1.771-4.152-3.895-6.978-3.958c-3.184-0.081-5.594,0.703-6.626,2.125c-1.424,1.956-0.666,5.436,0.236,8.044
			c0.508,1.467-0.003,3.14-1.331,3.944c-1.854,1.122-4.148,0.225-4.821-1.703c-2.08-5.951-1.871-10.705,0.618-14.133
			c2.348-3.23,6.626-4.965,12.069-4.821c4.064,0.089,8.094,2.192,11.66,6.077c5.211,5.683,8.698,14.384,8.293,20.689
			c-0.88,13.727-13.595,27.053-27.211,28.516c-14.185,1.537-28.047-6.422-37.235-12.533c-1.123-0.748-2.255-1.513-3.397-2.286
			c-12.233-8.27-24.88-16.82-38.952-11.471l-0.571,0.219c-3.207,1.237-8.054,3.1-12.38-0.582c-2.082-1.772-4.13-3.682-6.112-5.528
			c-5.543-5.167-11.274-10.51-18.096-13.112c-25.129-9.58-50.734-6.794-70.249,7.652c-5.682,4.207-10.253,9.629-15.094,15.369
			c-7.125,8.45-14.49,17.188-25.677,21.705c-5.714,2.307-11.508,2.824-17.111,3.324c-5.03,0.449-9.78,0.871-14.326,2.521
			c-11.421,4.143-19.115,13.779-21.662,27.135c-2.462,12.906,0.213,24.715,8.416,37.161c3.941,5.975,8.604,12.834,14.083,18.633
			l1.115,1.177c8.768,9.261,17.836,18.839,21.966,31.432c0.479,1.456,0.944,2.953,1.417,4.469
			c3.602,11.569,7.325,23.533,19.109,26.456c5.513,1.37,11.462,0.85,16.549,0.162c2.996-0.406,6.255-1.048,9.706-1.729
			c9.151-1.805,19.522-3.854,28.268-1.855c3.842,0.877,8.836,2.213,13.367,4.777c21.28,12.051,54.898,6.054,70.524-12.579
			c2.033-2.426,3.625-5.192,5.311-8.121c1.824-3.171,3.71-6.449,6.266-9.42c4.083-4.753,8.542-5.746,12.851-6.708
			c1.46-0.325,2.966-0.662,4.548-1.149c6.146-1.898,12.325-5.391,16.528-9.346c4.838-4.551,6.46-11.107,4.821-19.486
			c-0.859-4.382-2.532-8.382-4.303-12.617c-2.747-6.569-5.586-13.36-5.155-21.608c0.081-1.53,0.181-3.039,0.279-4.528
			c0.731-11.017,1.307-19.717-6.247-27.934c-6.33-6.883-16.466-9.7-27.113-7.544c-2.504,0.507-4.844,1.328-7.108,2.123
			c-6.683,2.345-13.593,4.771-22.101-2.121c-9.808-7.945-21.909-16.068-37.296-16.067c-10.52,0-18.889,1.548-25.583,4.735
			c-7.713,3.667-12.15,9.612-17.289,16.495c-1.014,1.357-2.044,2.735-3.116,4.12c-5.812,7.506-14.354,8.775-21.89,9.894
			c-7.067,1.051-13.171,1.958-17.222,7.097c-0.844,1.073-1.505,2.491-2.142,4.596c-3.487,11.541-0.982,22.451,8.126,35.375
			c4.525,6.426,5.462,13.657,6.37,20.65c1.17,9,2.178,16.773,10.588,21.718c9.267,5.447,20.536,2.065,31.433-1.207
			c2.295-0.688,4.546-1.363,6.726-1.94c7.095-1.879,15.477-3.193,23.895,1.295l2.297,1.237c5.217,2.825,10.613,5.747,16.214,6.725
			c8.122,1.417,15.901-1.791,21.862-9.05c2.349-2.859,4.156-6.024,5.904-9.085c4.712-8.251,9.578-16.785,23.934-15.961
			c3.397,0.194,6.485-0.956,8.751-3.236c2.455-2.471,3.727-6.048,3.489-9.815c-0.437-6.884-3.902-13.879-9.267-18.713
			c-3.38-3.044-8.51-4.025-13.943-5.063c-6.737-1.287-13.704-2.619-17.887-8.269c-1.14-1.541-2.014-3.063-2.786-4.405
			c-1.456-2.529-2.604-4.526-5.042-6.091c-5.2-3.337-11.698-4.498-17.826-3.189c-4.19,0.896-7.022,3.218-10.302,5.907
			c-2.351,1.928-4.78,3.92-7.892,5.521c-4.58,2.356-8.793,2.796-12.868,3.22c-1.976,0.207-4.02,0.419-6.159,0.852
			c-6.432,1.3-12.378,6.136-11.3,12.863c1.554,9.684,19.855,17.163,31.889,15.457c8.648-1.223,8.065-6.003,7.871-7.575
			c-0.1-0.823-0.699-1.698-1.524-2.228c-0.316-0.202-1.126-0.645-1.936-0.394c-1.075,0.333-2.259,0.229-3.078-0.542
			c-2.111-1.988-1.177-4.979,1.106-5.701c2.417-0.767,5.138-0.357,7.449,1.128c2.47,1.589,4.145,4.184,4.484,6.941
			c0.974,7.972-4.056,13.524-13.455,14.853c-13.81,1.957-36.902-6.142-39.272-20.902c-1.73-10.804,6.976-18.399,16.47-20.317
			c2.444-0.494,4.646-0.724,6.777-0.946c3.792-0.396,7.065-0.736,10.55-2.53c2.493-1.283,4.554-2.973,6.739-4.762
			c3.608-2.959,7.34-6.018,13.084-7.246c7.794-1.67,16.088-0.181,22.729,4.081c3.783,2.428,5.511,5.432,7.182,8.337
			c0.75,1.304,1.458,2.537,2.374,3.774c2.66,3.594,8.097,4.633,13.853,5.733c6.074,1.161,12.357,2.361,17.095,6.629
			c6.705,6.041,10.867,14.482,11.419,23.163c0.356,5.636-1.605,11.047-5.381,14.846c-3.606,3.626-8.497,5.454-13.768,5.157
			c-10.332-0.591-13.312,4.687-17.872,12.671c-1.884,3.298-3.83,6.707-6.53,9.994c-7.525,9.159-17.491,13.192-28.047,11.343
			c-6.654-1.161-12.528-4.341-18.207-7.415l-2.261-1.218c-6.396-3.411-12.979-2.374-19.139-0.743
			c-2.114,0.56-4.294,1.214-6.517,1.882c-11.675,3.504-24.899,7.479-36.636,0.58c-11.172-6.568-12.546-17.168-13.761-26.519
			c-0.842-6.49-1.639-12.619-5.232-17.721c-10.377-14.728-13.167-27.385-9.039-41.04c0.593-1.968,1.503-4.515,3.265-6.755
			c5.663-7.181,14.023-8.424,21.402-9.52c6.931-1.03,13.476-2.002,17.679-7.428c1.046-1.353,2.052-2.7,3.043-4.028
			c5.424-7.264,10.547-14.127,19.722-18.489c7.594-3.614,16.882-5.37,28.397-5.37c17.429-0.001,30.717,8.859,41.418,17.527
			c5.667,4.589,9.486,3.25,15.812,1.029c2.357-0.827,5.03-1.765,7.975-2.361c12.926-2.611,25.342,0.945,33.234,9.531
			c9.452,10.282,8.725,21.219,7.958,32.797c-0.096,1.459-0.194,2.938-0.273,4.437c-0.354,6.757,2.08,12.578,4.657,18.739
			c1.82,4.351,3.702,8.851,4.686,13.886c2.072,10.583-0.264,19.404-6.758,25.511c-4.893,4.607-12.029,8.656-19.083,10.833
			c-1.831,0.565-3.542,0.947-5.053,1.284c-4.003,0.893-6.645,1.482-9.313,4.586c-0.211,0.246-0.398,0.511-0.601,0.764
			c10.672-2.659,18.825,3.29,26.144,8.679c5.995,4.414,11.66,8.582,18.557,8.636c6.777,0.1,12.717-2.949,17.044-8.678
			c1.436-1.902,2.402-3.341,3.092-5.064l0.432-1.043c0.578-1.377,1.123-2.677,1.172-3.828c0.03-0.649-0.002-1.317-0.028-1.991
			c-0.062-1.571-0.132-3.35,0.332-5.162c1.707-6.65,9.041-8.25,14.394-9.419c1.509-0.329,2.935-0.64,3.971-1.001
			c4.925-1.712,10.81-6.294,12.523-11.737c0.94-2.985,0.473-5.713-1.428-8.341c-2.331-3.22-5.648-4.108-9.846-5.23
			c-1.673-0.448-3.401-0.911-5.155-1.56c-7.8-2.889-14.371-8.814-17.578-15.849c-4.277-9.381-1.694-18.553,6.583-23.368
			c8.329-4.846,21.261-3.874,28.488,6.129c2.355,3.26,3.472,6.698,3.229,9.945c-0.237,3.161-1.982,8.678-11.016,10.105
			c-1.809,0.285-3.465-0.937-3.745-2.723c-0.283-1.786,0.936-3.462,2.721-3.743c5.264-0.831,5.443-3.227,5.509-4.128
			c0.16-2.131-1.002-4.234-2.005-5.622c-5.055-6.995-14.081-7.685-19.888-4.304c-5.324,3.095-6.788,8.701-3.917,14.992
			c2.461,5.403,7.785,10.163,13.893,12.425c1.466,0.544,2.975,0.947,4.573,1.375c3.8,1.017,8.009,2.179,11.447,5.456
			c0.279,0.124,0.55,0.273,0.795,0.481c6.894,5.834,20.598,14.839,34.884,9.611c8.84-3.233,12.18-10.991,16.046-19.974
			c3.367-7.819,6.847-15.905,14.45-21.337c4.441-3.174,9.343-4.141,14.085-5.076c2.43-0.479,4.723-0.931,6.903-1.663
			c14.32-4.811,24.081-18.164,25.474-34.846c0.659-7.886-0.601-15.975-3.644-23.393c-1.575-3.837-4.045-7.159-6.662-10.675
			c-3.796-5.098-7.717-10.368-9.079-17.564c-1.837-9.695,3.749-18.246,13.584-20.794c8.033-2.084,15.449,0.645,22.612,3.286
			c4.342,1.601,8.442,3.112,12.506,3.51c0.795,0.078,1.583,0.123,2.359,0.136c-6.615-1.368-12.152-5.041-17.544-8.62
			L1125.605,151.887z"/>
	</g>
	<g>
		<path style="fill:#513333;" d="M181.365,762.749c0.196,3.865,0.799,7.677,1.731,11.567c1.028,4.293,2.092,8.731,2.092,13.565
			c0,4.409,1.026,9.252-0.65,13.966l-0.393,1.144c-0.319,0.945-0.672,1.946-1.091,2.943c11.041-3.13,22.629-4.37,34.269-3.379
			c3.829,0.327,7.589,1.261,11.223,2.164c4.219,1.049,8.237,2.09,11.91,2.016c4.195-0.025,8.448-1.488,12.951-3.036
			c3.128-1.076,6.364-2.188,9.697-2.834c29.073-5.627,62.082,2.725,86.146,21.8c4.196,3.327,8.684,7.694,12.727,12.74
			c-1.45-3.283-2.607-6.681-3.41-10.167c-2.819-12.253,0.925-25.503,9.776-34.579c8.883-9.106,21.602-12.768,34.931-10.053
			c5.022,1.02,8.943-2.096,14.907-7.283c4.348-3.78,9.273-8.063,15.505-9.781c17.107-4.714,35.874-1.063,47.803,9.303
			c5.647,4.908,12.683,12.927,14.116,23.252c1.349,9.696-3.362,19.061-12.601,25.053c-11.231,7.285-25.929,7.707-36.569,1.062
			c-4.446-2.777-8.98-8.206-9.083-14.074c-0.066-3.786,1.75-7.121,5.115-9.387c1.847-1.246,4.366-0.763,5.618,1.094
			c1.249,1.854,0.759,4.369-1.096,5.618c-1.381,0.933-1.555,1.805-1.542,2.535c0.039,2.298,2.358,5.526,5.275,7.348
			c9.275,5.793,20.683,3.68,27.879-0.987c6.627-4.3,9.905-10.549,8.988-17.146c-1.091-7.842-6.806-14.256-11.41-18.256
			c-9.94-8.636-25.771-11.626-40.343-7.609c-4.458,1.228-8.287,4.559-12.343,8.084c-5.921,5.149-12.635,10.984-21.837,9.107
			c-10.725-2.19-20.496,0.575-27.518,7.773c-6.946,7.124-9.892,17.513-7.681,27.111c3.478,15.103,14.409,28.474,29.244,35.768
			c7.75,3.812,16.62,6.012,25.645,6.36c3.586,0.136,7.012-0.046,10.314-0.224c5.391-0.294,10.972-0.597,17.183,0.535l0.608,0.111
			c11.855,2.156,22.098,4.015,33.882,1.56c19.626-4.1,37.465-17.836,46.559-35.849c7.362-14.586,8.082-29.895,2.026-43.106
			c-2.234-4.871-6.909-9.476-11.431-13.93c-7.136-7.03-14.517-14.3-14.522-24.164c-0.011-22.361-16.477-44.252-42.97-57.131
			c-17.031-8.281-39.813-9.982-59.447-4.441c-12.003,3.383-21.971,10.039-31.373,20.947c-2.201,2.555-4.274,5.512-6.467,8.644
			c-5.797,8.273-12.366,17.648-23.326,21.519c-8.967,3.167-17.71,2.175-26.164,1.216c-4.567-0.518-8.883-1.005-13.225-0.882
			c-13.32,0.382-28.427,8.982-35.139,20.004c-2.759,4.53-5.27,11.544-1.57,19.243c0.97,2.015,0.121,4.434-1.895,5.402
			c-2.011,0.969-4.432,0.121-5.399-1.895c-4.116-8.561-3.423-18.136,1.95-26.961c8.148-13.378,25.734-23.423,41.822-23.885
			c4.948-0.141,9.723,0.403,14.369,0.93c7.892,0.896,15.347,1.742,22.556-0.805c8.514-3.008,14.045-10.9,19.392-18.532
			c0.772-1.103,1.594-2.242,2.423-3.238c-0.141-0.243-0.382-0.334-0.676-0.339c-3.694-0.059-7.419,0.352-11.065-0.242
			c-5.589-0.911-11.441-3.242-16.764-5.156c-11.351-4.088-21.792-5.166-33.686-2.746c-5.866,1.194-11.586,3.109-16.986,5.695
			c-2.841,1.361-5.594,2.906-8.232,4.63c-2.73,1.784-4.068,3.241-5.922,5.742c-3.428,4.652-9.289,4.553-13.555,4.47
			c-0.704-0.012-1.397-0.028-2.059-0.016c-2.344,0.028-4.26-0.99-6.529-1.546c-2.518-0.617-5.102-0.927-7.683-1.121
			c-4.541-0.342-9.109-0.332-13.646,0.063c-7.364,0.641-14.688,2.32-21.359,5.502c-6.861,3.273-13.664,8.379-17.452,15.097
			c-2.46,4.359-3.85,9.204-4.335,14.114C181.288,757.48,181.232,760.127,181.365,762.749z"/>
		<path style="fill:#513333;" d="M675.899,1062.473c3.094-1.81,6.148-3.596,9.162-5.295c10.725-6.047,22.248-12.311,34.796-16.592
			c6.859-2.339,17.289-5.339,26.98-5.901c-10.851-1.776-23.507-0.042-30.58,1.269c-6.34,1.178-12.643,2.846-19.318,4.613
			c-13.249,3.509-26.928,7.136-40.939,6.615c-22.791-0.845-38.672-12.821-41.445-31.259c-0.059-0.391-0.041-0.773,0.011-1.146
			c-2.766,0.417-5.637,0.626-8.514,0.627c-7.465,0-14.894-1.254-20.156-2.982c-4.841-1.59-14.229-6.396-15.125-13.208
			c-0.269-2.037,0.039-5.95,5.115-9.27c4.957-3.241,11.729-1.584,15.323-0.307c2.108,0.748,3.207,3.063,2.458,5.169
			c-0.745,2.107-3.07,3.207-5.167,2.46c-3.549-1.262-6.762-1.478-8.182-0.547c-1.146,0.75-1.494,1.303-1.526,1.439
			c0.016,1.282,4.522,4.896,9.629,6.573c9.987,3.281,28.208,4.174,35.215-1.81c2.461-2.103,3.318-4.876,2.696-8.731
			c-0.403-2.487-1.961-4.947-4.169-6.58c-0.25-0.161-1.233-0.584-1.887-0.863c-3.296-1.415-7.816-3.354-7.526-7.759
			c0.116-1.606,0.443-3.089,0.759-4.523c0.804-3.648,0.975-5.173-0.437-6.718c-3.752-4.112-7.642-3.991-11.768-3.878l-0.838,0.024
			c-3.123,0.075-6.232,1.061-9.523,2.103c-3.046,0.964-6.195,1.962-9.645,2.341c-6.513,0.719-12.174-0.217-16.872-2.747
			c-3.654,11.905-15.867,20.314-30.712,20.314c-2.234,0-4.047-1.812-4.047-4.047c0-2.236,1.813-4.047,4.047-4.047
			c12.838,0,23.033-7.974,23.713-18.547c0.656-10.174-8.893-20.262-20.432-21.589c-9.75-1.124-20.024,3.601-29.958,8.169
			c-4.298,1.976-8.358,3.842-12.411,5.274c-12.272,4.341-32.912,3.99-46.211-4.107c-6.812-4.146-10.914-9.973-11.866-16.849
			c-0.736-5.329,0.159-9.807,2.278-13.621c-13.909,5.46-24.907,12.877-27.172,23.948c-2.988,14.584,3.439,24.149,20.833,31.019
			c6.588,2.6,13.246,3.58,19.249,2.813c2.219-0.268,4.242,1.291,4.524,3.507c0.279,2.217-1.289,4.242-3.507,4.524
			c-1.66,0.21-3.352,0.314-5.072,0.314c-5.897,0-12.087-1.229-18.166-3.63c-21.178-8.362-29.616-21.502-25.792-40.17
			c4.354-21.282,29.726-30.678,56.957-37.48c11.379-3.959,25.283-6.305,38.451-8.519c16.227-2.727,31.555-5.305,38.282-10.183
			c9.012-6.532,10.775-15.206,4.835-23.796c-1.254-1.817-0.822-4.306,0.972-5.592c9.908-7.099,15.297-18.044,14.783-30.029
			c-0.487-11.427-6.216-21.994-15.547-29.058c3.357,13.182,1.554,27.475-5.339,41.128c-10.177,20.158-30.15,35.534-52.13,40.124
			c-4.572,0.954-8.925,1.336-13.165,1.336c-8.124,0-15.826-1.402-23.821-2.855l-0.609-0.112c-5.273-0.958-10.14-0.696-15.294-0.415
			c-3.489,0.188-7.094,0.382-11.068,0.23c-10.147-0.393-20.145-2.878-28.904-7.185c-8.237-4.05-15.414-9.766-21.096-16.558
			c2.315,5.117,3.831,10.512,4.076,15.969c0.414,9.158-2.967,17.418-9.771,23.887c-0.132,0.128-11.428,10.087-20.079,13.505
			c7.958,16.817,6.64,31.724-3.966,45.417c-19.207,24.805-57.882,25.738-82.694,12.376c-5.257-2.832-14.738-9.029-19.178-18.728
			c-1.631-3.565-2.105-6.215-2.451-8.15c-0.121-0.672-0.284-1.593-0.414-1.823c-0.087-0.071-0.925-0.704-5.41-1.543
			c-3.001-0.563-5.889-0.987-8.677-1.397c-11.707-1.723-22.767-3.351-32.709-13.963c-14.917-15.924-17.078-38.131-5.373-55.256
			c12.957-18.957,35.929-27.166,59.903-21.45c1.763,0.42,3.326,0.86,4.793,1.273c4.372,1.232,7.255,2.045,12.187,1.439
			c1.837-0.225,3.652-0.759,5.576-1.323c3.85-1.131,8.206-2.411,13.37-1.232c9.162,2.098,18.063,7.792,26.453,16.925
			c3.444,3.747,7.681,8.854,9.889,15.123c2.395,6.802,1.544,14.037-2.401,20.37c-4.97,7.986-14.409,13.701-24.633,14.916
			c-10.917,1.292-20.435-4.703-24.649-10.831c-3.049-4.435-3.66-9.141-1.678-12.912c1.633-3.107,5.691-6.809,15.742-6.809
			c2.235,0,4.048,1.812,4.048,4.048c0,2.236-1.813,4.047-4.048,4.047c-5.362,0-7.945,1.282-8.577,2.482
			c-0.522,0.991-0.069,2.737,1.183,4.556c2.973,4.32,9.776,8.25,17.025,7.38c7.839-0.932,15.012-5.206,18.717-11.154
			c1.85-2.975,3.639-7.715,1.634-13.403c-1.341-3.809-3.874-7.613-8.214-12.335c-7.262-7.904-14.764-12.787-22.3-14.51
			c-3.096-0.71-5.966,0.133-9.284,1.107c-2.15,0.631-4.374,1.284-6.87,1.59c-6.532,0.802-10.633-0.349-15.368-1.681
			c-1.37-0.386-2.83-0.798-4.477-1.191c-20.646-4.934-40.329,2.025-51.342,18.142c-9.513,13.92-7.665,32.066,4.598,45.156
			c8.008,8.55,16.822,9.846,27.979,11.487c2.888,0.426,5.879,0.866,8.991,1.448c9.252,1.732,11.265,4.1,12.301,9.903
			c0.3,1.673,0.638,3.572,1.842,6.203c2.524,5.514,8.229,10.97,15.655,14.969c21.998,11.849,56.367,10.569,72.46-10.204
			c9.684-12.505,9.786-25.9,0.321-42.153c-0.003-0.004-0.003-0.007-0.005-0.011c0-0.001,0-0.001,0-0.001
			c-1.125-1.932-0.472-4.408,1.46-5.534c1.418-0.83,3.138-0.694,4.398,0.208c3.958-0.909,15.349-9.162,18.693-12.34
			c5.125-4.875,7.568-10.816,7.26-17.658c-0.614-13.713-11.895-28.576-22.799-37.223c-22.267-17.648-52.765-25.39-79.579-20.195
			c-2.777,0.538-5.608,1.511-8.604,2.542c-4.922,1.693-10.013,3.443-15.536,3.476c-4.643-0.029-9.391-1.133-13.908-2.254
			c-3.484-0.866-6.772-1.684-9.96-1.955c-12.946-1.106-25.825,0.78-37.813,5.171c-0.714,0.658-1.617,1.071-2.607,1.071
			c-0.056,0-0.114-0.022-0.17-0.025c-15.838,6.398-29.947,17.275-40.27,31.706c-16.079,22.477-19.763,49.364-9.852,71.919
			c8.696,19.787,27.173,26.976,52.243,31.684c11.278,2.121,11.347,11.272,11.391,17.327c0.016,1.829,0.029,3.556,0.256,5.086
			c1.536,10.311,4.722,17.767,10.029,23.463c19.484,20.921,64.844,20.165,90.826,12.949c2.472-0.686,4.954-1.417,7.442-2.149
			c19.779-5.821,42.203-12.424,61.418,4.406c1.681,1.473,1.85,4.03,0.377,5.712c-1.468,1.678-4.029,1.851-5.71,0.378
			c-13.049-11.43-27.833-9.783-43.529-5.645c10.195,4.153,18.507,12.988,23.12,23.126c10.424,22.913,24.092,30.628,44.346,25.027
			c14.496-4.012,26.996-13.452,39.089-22.581c18.467-13.945,37.571-28.373,64.725-25.249c15.236,1.747,27.763,10.585,31.919,22.518
			c3.555,10.208,7.726,16.262,18.514,17.001c9.373,0.65,19.289-2.879,29.795-6.606c17.413-6.179,37.139-13.182,54.251,2.385
			c1.652,1.503,1.774,4.063,0.269,5.717c-1.505,1.658-4.06,1.776-5.718,0.27c-13.52-12.303-28.617-6.945-46.095-0.743
			c-1.285,0.455-2.575,0.913-3.87,1.363c7.264,2.728,13.018,7.102,18.966,11.638c4.34,3.311,8.83,6.735,14.174,9.674
			c8.424,4.631,17.716,6.896,26.941,6.534C640.839,1082.981,658.663,1072.556,675.899,1062.473z"/>
	</g>
</g>
</svg>
